<svg id="Capa_1" height="512" viewBox="0 0 512.012 512.012" width="512" xmlns="http://www.w3.org/2000/svg"><path d="M97.006 325.006c-4.142 0-7.5 3.357-7.5 7.5s3.358 7.5 7.5 7.5h76.5c4.142 0 7.5-3.357 7.5-7.5s-3.358-7.5-7.5-7.5zm317-30h-27.425c-4.142 0-7.5 3.357-7.5 7.5s3.358 7.5 7.5 7.5h27.425c4.142 0 7.5-3.357 7.5-7.5s-3.358-7.5-7.5-7.5zm-317-45h25.702c4.142 0 7.5-3.357 7.5-7.5s-3.358-7.5-7.5-7.5H97.006c-4.142 0-7.5 3.357-7.5 7.5s3.358 7.5 7.5 7.5zm22.5-67.5a7.5 7.5 0 007.5 7.5h90.17c4.142 0 7.5-3.357 7.5-7.5s-3.358-7.5-7.5-7.5h-90.17a7.5 7.5 0 00-7.5 7.5zm189-42.5c4.142 0 7.5-3.357 7.5-7.5s-3.358-7.5-7.5-7.5h-106c-4.142 0-7.5 3.357-7.5 7.5s3.358 7.5 7.5 7.5z"/><path d="M508.382 401.955c-3.421-4.537-8.643-7.139-14.326-7.139h-5.303V94.612c0-15.226-12.386-27.612-27.611-27.612h-75.009c-4.142 0-7.5 3.357-7.5 7.5s3.358 7.5 7.5 7.5h75.009c6.954 0 12.611 5.658 12.611 12.612v300.204h-68.577c-4.142 0-7.5 3.357-7.5 7.5s3.358 7.5 7.5 7.5h88.88c1.276 0 2.02.733 2.35 1.171s.831 1.354.478 2.588c-2.767 9.678-11.729 16.437-21.794 16.437H305.231v-20.195h64.796c4.142 0 7.5-3.357 7.5-7.5s-3.358-7.5-7.5-7.5H38.258V287.176c0-4.143-3.358-7.5-7.5-7.5s-7.5 3.357-7.5 7.5v107.641h-5.303c-5.682 0-10.902 2.602-14.324 7.137-3.421 4.535-4.489 10.271-2.93 15.733 4.594 16.089 19.488 27.325 36.22 27.325H475.09c16.726 0 31.619-11.231 36.218-27.32 1.562-5.465.496-11.2-2.926-15.737zm-218.151 28.057h-67.457v-20.195h67.457zM15.125 413.567a2.884 2.884 0 01.48-2.58 2.888 2.888 0 012.35-1.171h189.819v20.195H36.921c-10.068.001-19.031-6.761-21.796-16.444zm15.633-153.998a7.5 7.5 0 007.5-7.5V94.612C38.258 87.658 43.915 82 50.87 82h300.158c4.142 0 7.5-3.357 7.5-7.5s-3.358-7.5-7.5-7.5H50.87c-15.225 0-27.611 12.387-27.611 27.612v157.457a7.498 7.498 0 007.499 7.5z"/><path d="M333.441 169.793l-5.213 5.213h-81.052c-4.142 0-7.5 3.357-7.5 7.5s3.358 7.5 7.5 7.5h66.052l-15 15H97.006c-4.142 0-7.5 3.357-7.5 7.5s3.358 7.5 7.5 7.5h186.222l-15 15h-115.52c-4.142 0-7.5 3.357-7.5 7.5s3.358 7.5 7.5 7.5h100.52l-8.789 8.789c-1.891 1.891-3.543 3.982-4.992 6.211H97.006c-4.142 0-7.5 3.357-7.5 7.5s3.358 7.5 7.5 7.5h134.747l-7.347 15h-127.4c-4.142 0-7.5 3.357-7.5 7.5s3.358 7.5 7.5 7.5h120.053l-9.413 19.219a14.495 14.495 0 0013.023 20.875 14.46 14.46 0 006.372-1.478l60.209-29.49a38.164 38.164 0 0010.221-7.304l1.822-1.822h57.287c4.142 0 7.5-3.357 7.5-7.5s-3.358-7.5-7.5-7.5h-42.286l15-15h75.212c4.142 0 7.5-3.357 7.5-7.5s-3.358-7.5-7.5-7.5h-60.211l15-15h54.711c4.142 0 7.5-3.357 7.5-7.5s-3.358-7.5-7.5-7.5h-39.711l12.173-12.173c1.71.482 3.493.745 5.318.745a19.372 19.372 0 0013.789-5.711l26.163-26.162a19.376 19.376 0 005.711-13.789c0-1.826-.263-3.609-.746-5.32l14.934-14.934a22.35 22.35 0 006.59-15.909 22.35 22.35 0 00-6.59-15.909l-21.213-21.215c-8.773-8.771-23.047-8.771-31.82 0l-14.94 14.941c-6.576-1.851-13.938-.205-19.101 4.958l-26.164 26.164c-5.163 5.164-6.809 12.526-4.958 19.101zm19.454 22.972l-28.384 28.385a7.5 7.5 0 0010.606 10.607l28.385-28.385 10.607 10.606-85.56 85.56-10.607-10.606 32.441-32.441a7.5 7.5 0 00-10.606-10.607l-32.442 32.442-10.606-10.606 85.56-85.56zM261.585 315l-20.318-20.318 6.974-14.238 27.583 27.583zm-39.823 19.506l12.531-25.584 13.053 13.053zm187.449-219.27c2.925-2.925 7.684-2.923 10.607-.001l21.213 21.215a7.447 7.447 0 012.197 5.303c0 2.003-.78 3.887-2.197 5.303l-13.182 13.182-31.819-31.82zm-30.859 18.583c1.152 0 2.305.439 3.182 1.316l39.599 39.599c.85.85 1.317 1.979 1.317 3.182s-.468 2.332-1.318 3.182l-7.778 7.778-45.962-45.962 7.778-7.778a4.483 4.483 0 013.182-1.317zm-29.346 27.48l7.778-7.778 45.962 45.962-7.778 7.778a4.468 4.468 0 01-3.182 1.317 4.47 4.47 0 01-3.181-1.317v-.001l-19.799-19.799-19.798-19.798a4.504 4.504 0 01-.002-6.364z"/></svg>