<svg version="1.1" id="Layer_1" xmlns="http://www.w3.org/2000/svg" viewBox="0 0 512 512" width="50" height="50" xml:space="preserve"><path d="M256 0C114.837 0 0 114.837 0 256s114.837 256 256 256 256-114.837 256-256S397.163 0 256 0zm121.749 313.749A21.275 21.275 0 01362.666 320a21.275 21.275 0 01-15.083-6.251L256 222.165l-91.584 91.584c-8.341 8.341-21.824 8.341-30.165 0-8.341-8.341-8.341-21.824 0-30.165l106.667-106.667c8.341-8.341 21.824-8.341 30.165 0L377.75 283.584c8.341 8.341 8.341 21.824-.001 30.165z"/></svg>